<?xml version="1.0" standalone="no"?>
<!DOCTYPE svg PUBLIC "-//W3C//DTD SVG 20010904//EN"
 "http://www.w3.org/TR/2001/REC-SVG-20010904/DTD/svg10.dtd">
<svg version="1.0" xmlns="http://www.w3.org/2000/svg"
 width="450.000000pt" height="450.000000pt" viewBox="0 0 450.000000 450.000000"
 preserveAspectRatio="xMidYMid meet">
<metadata>
Created by potrace 1.14, written by Peter Selinger 2001-2017
</metadata>
<g transform="translate(0.000000,450.000000) scale(0.100000,-0.100000)"
fill="#000000" stroke="none">
<path d="M2060 4047 c-19 -6 -38 -16 -42 -21 -4 -6 -8 -8 -8 -3 0 13 -54 -26
-98 -72 -33 -35 -51 -45 -75 -46 -18 0 -38 -4 -44 -8 -7 -5 -17 -5 -23 -2 -5
3 -10 1 -10 -4 0 -6 -7 -11 -15 -11 -8 0 -24 -9 -35 -20 -11 -11 -20 -17 -20
-13 0 3 -10 -6 -23 -20 -12 -15 -29 -27 -36 -27 -8 0 -12 -3 -8 -6 5 -5 -8
-24 -38 -58 -6 -6 -17 -27 -25 -46 -8 -19 -18 -38 -23 -41 -11 -8 -45 -140
-40 -156 3 -7 1 -13 -4 -13 -17 0 -17 -259 1 -288 3 -5 -1 -12 -9 -16 -8 -3
-15 -1 -15 3 0 5 -16 5 -35 1 -19 -4 -35 -6 -35 -5 0 2 -13 -10 -29 -26 -36
-35 -52 -82 -54 -152 -1 -42 3 -57 21 -75 12 -12 22 -26 22 -30 0 -18 63 -43
117 -45 l57 -3 11 -41 c5 -23 13 -45 18 -49 4 -4 7 -14 7 -21 0 -33 142 -203
169 -203 4 0 16 -8 27 -18 10 -9 41 -28 67 -42 l48 -25 -35 -9 c-20 -5 -36
-13 -36 -18 0 -5 -4 -6 -10 -3 -5 3 -30 -3 -54 -14 -25 -10 -47 -17 -50 -13
-3 3 -6 0 -6 -6 0 -6 -19 -16 -42 -22 -24 -6 -52 -15 -63 -19 -21 -9 -150 -51
-169 -56 -6 -1 -18 -5 -26 -8 -39 -15 -112 -37 -125 -37 -8 0 -15 -4 -15 -9 0
-5 -8 -8 -17 -6 -10 1 -22 -1 -28 -5 -9 -8 -86 -31 -165 -50 -19 -5 -53 -13
-74 -19 -22 -5 -43 -8 -47 -5 -4 2 -10 0 -13 -5 -3 -5 -29 -12 -58 -16 -29 -4
-62 -9 -73 -11 -11 -1 -40 -6 -65 -9 -25 -3 -70 -9 -101 -13 -71 -10 -178 -5
-196 9 -7 6 -13 9 -13 6 0 -3 -15 -1 -32 4 -18 6 -48 13 -65 16 -30 4 -33 2
-33 -21 0 -14 5 -26 12 -26 6 0 8 -3 4 -7 -4 -4 -35 -8 -69 -10 -34 -1 -71 -4
-82 -7 -11 -2 -23 -5 -27 -5 -19 -2 -6 -42 17 -53 25 -11 24 -34 -2 -24 -8 3
-11 2 -8 -3 3 -5 -2 -11 -10 -13 -14 -3 -14 -6 -2 -21 9 -13 26 -19 50 -19 20
0 34 -4 31 -9 -3 -5 -9 -7 -12 -5 -4 2 -19 -4 -32 -15 -18 -13 -21 -19 -10
-20 8 -1 20 -2 25 -4 6 -1 18 -3 28 -3 26 -3 21 -16 -14 -31 -29 -13 -29 -14
-11 -27 11 -7 55 -16 98 -19 43 -3 81 -8 85 -11 4 -2 10 -1 12 4 5 7 71 7 270
-1 37 -1 67 1 67 5 0 4 10 4 22 -1 12 -4 39 -5 60 -1 21 4 38 4 38 1 0 -4 12
-6 27 -5 16 1 28 3 28 4 0 0 59 2 131 4 72 2 136 6 142 10 6 3 14 1 18 -5 4
-8 8 -8 13 0 4 5 27 12 51 15 25 3 56 8 70 11 14 3 37 8 51 9 14 2 31 6 37 10
7 4 12 5 12 2 0 -2 15 0 33 5 94 27 99 24 85 -65 -5 -32 -6 -61 -3 -64 2 -3 1
-10 -5 -16 -5 -7 -11 -41 -14 -76 -3 -36 -8 -81 -10 -100 -3 -19 -8 -96 -11
-170 -4 -74 -9 -162 -11 -195 -6 -89 -5 -185 1 -196 4 -5 2 -9 -2 -9 -5 0 -9
-9 -9 -20 0 -11 4 -20 9 -20 4 0 5 -5 1 -11 -4 -6 -7 -86 -8 -176 0 -150 1
-166 18 -179 11 -7 23 -11 27 -8 5 2 37 4 71 4 35 0 70 -1 78 -1 8 0 47 2 85
4 39 2 78 0 88 -5 9 -5 17 -5 17 -1 0 4 53 7 117 6 65 -2 125 -3 133 -3 263 2
494 0 498 -4 3 -3 11 -1 18 5 8 6 22 8 31 4 16 -6 120 -9 163 -4 8 1 26 -1 39
-5 13 -5 21 -4 18 0 -3 5 43 8 101 7 81 -2 109 0 117 11 14 18 8 418 -10 736
-2 30 -4 87 -5 125 -2 39 -6 79 -10 91 -5 11 -4 28 1 37 7 11 6 17 0 17 -6 0
-9 10 -7 23 2 12 0 34 -4 48 -7 24 -19 119 -25 196 l-2 33 45 -6 c25 -3 50 -8
55 -11 6 -3 20 -7 31 -9 20 -3 40 -7 96 -19 76 -17 163 -26 295 -30 66 -2 122
-5 125 -6 3 -1 8 -1 11 -1 18 2 105 2 174 -1 44 -2 85 0 92 5 6 5 14 5 18 -2
3 -6 11 -7 17 -3 15 8 218 11 218 2 0 -6 7 -6 90 5 92 13 108 20 89 42 -6 8
-18 14 -26 14 -8 0 -13 6 -10 13 2 6 9 11 15 10 6 -2 24 2 39 8 27 10 27 11 8
22 -11 6 -26 12 -33 13 -25 4 -26 14 -1 16 13 1 31 2 39 3 48 3 46 39 -3 50
l-32 7 25 11 c39 18 52 33 37 45 -22 18 -61 25 -118 23 l-57 -2 4 37 3 36 -37
-6 c-20 -4 -43 -8 -49 -8 -7 -1 -13 -5 -13 -10 0 -5 -12 -9 -27 -7 -16 1 -39
-3 -53 -8 -27 -11 -188 -5 -220 8 -3 1 -18 3 -35 4 -50 5 -119 16 -126 21 -4
2 -29 7 -56 10 -26 3 -70 11 -98 19 -27 8 -82 23 -122 35 -39 11 -78 20 -86
20 -8 0 -20 7 -27 15 -7 8 -22 13 -34 11 -11 -2 -28 1 -36 5 -23 13 -137 49
-155 49 -8 0 -15 4 -15 8 0 5 -30 15 -66 22 -36 8 -67 17 -70 22 -3 4 -11 8
-19 8 -7 0 -35 10 -62 22 -26 12 -50 22 -53 22 -3 1 -9 4 -15 7 -5 3 -38 14
-71 24 -48 14 -59 21 -50 31 6 6 13 12 16 11 10 -1 46 16 63 31 9 8 17 12 17
8 0 -4 13 6 29 21 16 15 42 39 57 53 16 14 38 38 49 54 27 40 55 85 55 91 0 3
6 18 15 35 13 24 20 51 24 81 1 3 25 6 55 7 63 0 105 21 130 63 10 16 21 29
25 29 13 0 7 125 -6 142 -7 8 -10 18 -7 21 4 4 -9 22 -29 42 -27 27 -44 35
-75 37 -29 1 -41 6 -41 17 -2 75 -17 178 -37 254 -3 12 -7 32 -9 44 -2 12 -7
28 -11 35 -10 15 -12 23 -20 66 -4 17 -12 32 -20 32 -7 0 -11 6 -8 13 3 8 -2
20 -11 27 -8 7 -15 19 -15 26 0 8 -7 14 -16 14 -8 0 -13 4 -10 8 8 13 -92 112
-113 112 -6 0 -11 4 -11 9 0 5 -32 24 -70 43 -39 19 -67 38 -63 43 5 4 2 6 -6
3 -8 -2 -23 4 -33 14 -10 10 -29 18 -42 18 -13 0 -26 5 -28 10 -2 6 -13 12
-26 15 -12 2 -28 7 -35 12 -6 4 -20 9 -30 10 -10 2 -30 9 -45 17 -20 10 -33
11 -46 4 -14 -8 -17 -7 -12 1 4 6 1 11 -6 12 -7 0 -29 3 -48 5 -92 10 -168 10
-200 1z"/>
</g>
</svg>
